<svg width="658" height="160" viewBox="0 0 658 160" fill="none" xmlns="http://www.w3.org/2000/svg">
<path fill-rule="evenodd" clip-rule="evenodd" d="M571.565 12.5465C578.684 12.273 593.091 13.2144 604.616 23.5631C614.07 32.0522 617.328 47.7904 615.125 59.9938C613.105 71.1802 608.346 80.3327 610.21 88.8073C612.074 97.2819 616.818 101.46 620.854 103.215C624.752 104.909 628.52 104.401 627.803 107.621C627.085 110.841 622.21 112.028 618.65 112.028C616.698 112.028 610.795 111.519 608.176 109.824C605.081 107.821 604.391 106.026 603.213 104.583C603.013 104.338 602.66 104.509 602.707 104.821C603.244 108.371 604.724 114.394 607.125 118.13C609.068 121.152 609.871 123.356 614.322 127.085C618.774 130.813 620.853 134.203 616.525 136.604C612.68 138.736 604.322 134.373 599.407 128.977C594.983 124.12 591.903 118.129 590.685 114.231C590.033 112.147 589.381 108.562 588.729 105.63C588.644 105.244 588.116 105.306 588.104 105.701C587.888 113.164 586.715 120.291 585 127.932C583.765 133.433 580.763 140.135 578.051 144.203C574.744 149.163 569.835 150.711 566.187 149.355C563.268 148.27 565.339 144.582 566.187 141.389C567.034 138.197 568.729 131.519 569.871 124.203C570.904 117.581 571.178 111.026 570.718 104.815C570.689 104.436 570.107 104.378 569.989 104.739C569.038 107.652 567.245 112.481 565.938 115.418C563.21 121.543 561.191 124.231 555.598 130.672C550.568 136.464 536.1 144.655 534.242 136.604C533.734 134.401 536.398 133.436 538.854 131.519C542.548 128.638 545.634 123.525 548.56 117.282C551.187 111.676 552.522 106.253 552.727 102.791C552.746 102.457 552.327 102.331 552.139 102.607C550.922 104.391 549.132 106.805 547.159 108.807C543.864 112.152 540.21 115.595 535.972 117.282C529.158 119.994 522.209 118.129 522.717 113.215C523.141 109.109 527.725 109.959 533.431 103.734C539.024 97.6323 540.888 92.8857 541.227 87.6315C541.497 83.428 537.385 73.4513 535.295 68.9879C531.962 61.8693 529.498 41.666 539.532 28.6491C552.074 12.3784 567.158 12.7159 571.565 12.5465ZM552 40.9997C547.333 40.9997 545 44.5815 545 48.9997C545 53.4179 547.593 56.9997 552 56.9997C556.407 56.9996 559 53.4179 559 48.9997C559 44.5816 556.667 40.9997 552 40.9997ZM590 40.9997C585.333 40.9997 583 44.5815 583 48.9997C583 53.4179 585.593 56.9997 590 56.9997C594.407 56.9996 597 53.4179 597 48.9997C597 44.5816 594.667 40.9997 590 40.9997Z" fill="black" style="fill:black;fill-opacity:1;"/>
<path d="M440.54 92.88L416.18 59H437.88L453.7 82.38L470.22 59H489.96L466.02 92.6L491.36 129H470.22L452.44 103.24L434.38 129H414.5L440.54 92.88Z" fill="black" style="fill:black;fill-opacity:1;"/>
<path d="M378.2 59H404.24V107.72C404.24 109.68 404.24 111.64 404.24 113.6H414.88V129H392.76L389.54 118.64H388.98C386.833 122.187 383.613 125.127 379.32 127.46C375.027 129.793 370.267 130.96 365.04 130.96C361.493 130.96 358.227 130.493 355.24 129.56C352.347 128.627 349.873 127.087 347.82 124.94C345.767 122.793 344.18 119.9 343.06 116.26C341.94 112.62 341.38 108.047 341.38 102.54V74.4H333.4V59H359.58V98.76C359.58 104.453 360.467 108.56 362.24 111.08C364.107 113.6 367 114.86 370.92 114.86C374.373 114.86 377.453 113.833 380.16 111.78C382.96 109.727 384.92 107.207 386.04 104.22V74.4H378.2V59Z" fill="black" style="fill:black;fill-opacity:1;"/>
<path d="M308.22 76.78L308.92 61.52H308.08L292.4 87.14H289.04L272.66 61.52H271.96L272.8 75.24V129H254.6V31H274.06L290.86 58.16H291.42L308.08 31H327.4V129H308.22V76.78Z" fill="black" style="fill:black;fill-opacity:1;"/>
<path d="M172.68 59H197.18L199.28 68.24H199.84C201.987 65.2533 205.067 62.64 209.08 60.4C213.093 58.16 217.9 57.04 223.5 57.04C226.953 57.04 230.173 57.5067 233.16 58.44C236.24 59.3733 238.853 60.9133 241 63.06C243.147 65.2067 244.827 68.1467 246.04 71.88C247.347 75.52 248 80.0467 248 85.46V129H229.8V89.24C229.8 83.5467 228.493 79.44 225.88 76.92C223.36 74.4 220.14 73.14 216.22 73.14C212.767 73.14 209.593 74.1667 206.7 76.22C203.9 78.18 201.987 80.6534 200.96 83.64V129H182.76V74.4H172.68V59Z" fill="black" style="fill:black;fill-opacity:1;"/>
<path d="M168.76 121.58C167.547 122.7 165.96 123.82 164 124.94C162.133 125.967 159.893 126.947 157.28 127.88C154.76 128.813 151.96 129.56 148.88 130.12C145.8 130.68 142.533 130.96 139.08 130.96C133.107 130.96 127.74 130.12 122.98 128.44C118.313 126.76 114.347 124.333 111.08 121.16C107.813 117.893 105.293 114.02 103.52 109.54C101.84 104.967 101 99.7867 101 94C101 87.84 101.98 82.4734 103.94 77.9C105.9 73.2333 108.56 69.36 111.92 66.28C115.373 63.2 119.387 60.9133 123.96 59.42C128.533 57.8333 133.48 57.04 138.8 57.04C142.347 57.04 145.987 57.5067 149.72 58.44C153.547 59.3733 157.047 61.0067 160.22 63.34C163.393 65.58 165.96 68.6133 167.92 72.44C169.973 76.2667 171 81.12 171 87C171 91.0134 170.533 95.3533 169.6 100.02H119.2C119.293 103.007 119.9 105.527 121.02 107.58C122.233 109.633 123.773 111.313 125.64 112.62C127.6 113.927 129.793 114.907 132.22 115.56C134.74 116.12 137.4 116.4 140.2 116.4C145.8 116.4 150.373 115.747 153.92 114.44C157.56 113.133 160.5 111.547 162.74 109.68L168.76 121.58ZM138.52 71.6C136.093 71.6 133.807 71.9267 131.66 72.58C129.513 73.2333 127.553 74.2133 125.78 75.52C124.1 76.7333 122.7 78.2733 121.58 80.14C120.46 82.0067 119.807 84.1067 119.62 86.44H154.06C154.06 81.8667 152.753 78.2733 150.14 75.66C147.62 72.9533 143.747 71.6 138.52 71.6Z" fill="black" style="fill:black;fill-opacity:1;"/>
<path d="M29.9199 111.92L75.8399 48.08H32.1599V31H98.3799V48.08L53.1599 111.92H99.0799V129H29.9199V111.92Z" fill="black" style="fill:black;fill-opacity:1;"/>
</svg>
